<?xml version="1.0" encoding="iso-8859-1"?>
<!-- Generator: Adobe Illustrator 19.0.0, SVG Export Plug-In . SVG Version: 6.00 Build 0)  -->
<svg version="1.1" id="Layer_1" xmlns="http://www.w3.org/2000/svg" x="0px" y="0px"
	 viewBox="0 0 512 512" style="enable-background:new 0 0 512 512;" xml:space="preserve">
<path style="fill:#314E55;" d="M502.519,28.444H9.481C4.241,28.444,0,32.69,0,37.926v170.667v265.481
	c0,5.241,4.241,9.482,9.481,9.482h66.37c5.241,0,9.481-4.241,9.481-9.482V445.63h66.37v0.194h18.963v-0.194h75.852v0.194h18.963
	v-0.194h75.852v0.194h18.963v-0.194h66.37v28.444c0,5.241,4.241,9.482,9.482,9.482h66.37c5.241,0,9.481-4.241,9.481-9.482V208.593
	V37.926C512,32.69,507.759,28.444,502.519,28.444z"/>
<polygon style="fill:#81A4E3;" points="18.963,47.407 493.037,47.407 493.037,199.111 436.148,199.111 360.296,199.111 
	341.333,199.111 265.481,199.111 246.519,199.111 170.667,199.111 151.704,199.111 75.852,199.111 18.963,199.111 "/>
<g>
	<rect x="360.296" y="218.074" style="fill:#EAEAEA;" width="66.37" height="94.815"/>
	<rect x="85.333" y="218.074" style="fill:#EAEAEA;" width="66.37" height="94.815"/>
	<rect x="170.667" y="218.074" style="fill:#EAEAEA;" width="75.852" height="94.815"/>
	<rect x="265.481" y="218.074" style="fill:#EAEAEA;" width="75.852" height="94.815"/>
</g>
<polygon style="fill:#D8D8D8;" points="66.37,464.593 18.963,464.593 18.963,218.074 66.37,218.074 66.37,322.37 66.37,436.148 "/>
<g>
	<rect x="85.333" y="331.852" style="fill:#EAEAEA;" width="66.37" height="94.815"/>
	<rect x="170.667" y="331.852" style="fill:#EAEAEA;" width="75.852" height="94.815"/>
	<rect x="265.481" y="331.852" style="fill:#EAEAEA;" width="75.852" height="94.815"/>
	<rect x="360.296" y="331.852" style="fill:#EAEAEA;" width="66.37" height="94.815"/>
</g>
<polygon style="fill:#D8D8D8;" points="493.037,464.593 445.63,464.593 445.63,436.148 445.63,322.37 445.63,218.074 
	493.037,218.074 "/>
<g>
	<path style="fill:#314E55;" d="M85.333,108.222l21.741,21.741c1.852,1.852,4.278,2.778,6.704,2.778s4.852-0.926,6.704-2.778
		l21.741-21.741v62.445h18.963V66.37h-18.963v15.037l-28.444,28.444L85.333,81.408V66.37H66.37v104.296h18.963V108.222z"/>
	<path style="fill:#314E55;" d="M199.111,132.741h47.407v37.926h18.963v-37.926v-18.963V75.852c0-5.236-4.241-9.481-9.481-9.481
		h-66.37c-5.241,0-9.481,4.245-9.481,9.481v37.926v18.963v37.926h18.963V132.741z M199.111,85.333h47.407v28.444h-47.407V85.333z"/>
	<polygon style="fill:#314E55;" points="360.296,170.667 360.296,151.704 303.407,151.704 303.407,66.37 284.444,66.37 
		284.444,151.704 284.444,170.667 303.407,170.667 	"/>
	<polygon style="fill:#314E55;" points="445.63,170.667 445.63,151.704 388.741,151.704 388.741,66.37 369.778,66.37 
		369.778,151.704 369.778,170.667 388.741,170.667 	"/>
</g>
<g>
</g>
<g>
</g>
<g>
</g>
<g>
</g>
<g>
</g>
<g>
</g>
<g>
</g>
<g>
</g>
<g>
</g>
<g>
</g>
<g>
</g>
<g>
</g>
<g>
</g>
<g>
</g>
<g>
</g>
</svg>
